<svg width="495" height="337" viewBox="0 0 495 337" fill="none" xmlns="http://www.w3.org/2000/svg">
<path d="M222.252 66.144C221.452 66.144 220.844 65.908 220.428 65.436C220.012 64.964 219.804 64.328 219.804 63.528C219.804 62.968 219.884 62.452 220.044 61.98C220.204 61.5 220.428 61.092 220.716 60.756C221.012 60.412 221.36 60.144 221.76 59.952C222.168 59.76 222.616 59.664 223.104 59.664C223.44 59.664 223.736 59.704 223.992 59.784C224.248 59.856 224.468 59.964 224.652 60.108C224.836 60.244 224.984 60.404 225.096 60.588C225.216 60.772 225.304 60.972 225.36 61.188L224.292 61.656C224.188 61.32 224.036 61.084 223.836 60.948C223.636 60.804 223.352 60.732 222.984 60.732C222.544 60.732 222.172 60.876 221.868 61.164C221.572 61.444 221.376 61.872 221.28 62.448L221.16 63.168C221.144 63.28 221.132 63.38 221.124 63.468C221.116 63.556 221.112 63.644 221.112 63.732C221.112 64.18 221.224 64.516 221.448 64.74C221.68 64.964 222.012 65.076 222.444 65.076C222.572 65.076 222.7 65.064 222.828 65.04C222.964 65.008 223.104 64.944 223.248 64.848C223.4 64.744 223.568 64.6 223.752 64.416C223.936 64.224 224.144 63.968 224.376 63.648L225.228 64.176C225.028 64.496 224.824 64.78 224.616 65.028C224.408 65.268 224.188 65.472 223.956 65.64C223.724 65.808 223.468 65.932 223.188 66.012C222.908 66.1 222.596 66.144 222.252 66.144ZM229.375 66.144C228.967 66.144 228.607 66.08 228.295 65.952C227.983 65.824 227.719 65.648 227.503 65.424C227.295 65.192 227.135 64.916 227.023 64.596C226.911 64.268 226.855 63.904 226.855 63.504C226.855 62.912 226.939 62.38 227.107 61.908C227.275 61.436 227.507 61.036 227.803 60.708C228.107 60.372 228.463 60.116 228.871 59.94C229.287 59.756 229.735 59.664 230.215 59.664C230.623 59.664 230.983 59.728 231.295 59.856C231.607 59.984 231.867 60.164 232.075 60.396C232.291 60.62 232.455 60.896 232.567 61.224C232.679 61.552 232.735 61.912 232.735 62.304C232.735 62.896 232.651 63.428 232.483 63.9C232.315 64.372 232.079 64.776 231.775 65.112C231.479 65.44 231.123 65.696 230.707 65.88C230.299 66.056 229.855 66.144 229.375 66.144ZM229.459 65.124C229.963 65.124 230.367 64.972 230.671 64.668C230.975 64.356 231.171 63.928 231.259 63.384L231.391 62.592C231.407 62.48 231.419 62.376 231.427 62.28C231.443 62.184 231.451 62.1 231.451 62.028C231.451 61.572 231.331 61.236 231.091 61.02C230.859 60.796 230.539 60.684 230.131 60.684C229.627 60.684 229.223 60.84 228.919 61.152C228.615 61.456 228.419 61.88 228.331 62.424L228.199 63.216C228.183 63.328 228.167 63.432 228.151 63.528C228.143 63.624 228.139 63.708 228.139 63.78C228.139 64.236 228.255 64.576 228.487 64.8C228.727 65.016 229.051 65.124 229.459 65.124ZM233.931 66L234.963 59.808H236.247L235.995 61.272H236.055C236.287 60.776 236.559 60.384 236.871 60.096C237.183 59.808 237.591 59.664 238.095 59.664C238.647 59.664 239.063 59.832 239.343 60.168C239.631 60.496 239.775 60.924 239.775 61.452C239.775 61.596 239.767 61.748 239.751 61.908C239.743 62.06 239.719 62.24 239.679 62.448L239.091 66H237.807L238.407 62.4C238.423 62.288 238.439 62.172 238.455 62.052C238.471 61.924 238.479 61.808 238.479 61.704C238.479 61.424 238.407 61.188 238.263 60.996C238.127 60.804 237.899 60.708 237.579 60.708C237.339 60.708 237.123 60.764 236.931 60.876C236.747 60.988 236.575 61.14 236.415 61.332C236.335 61.428 236.219 61.596 236.067 61.836C235.923 62.076 235.823 62.36 235.767 62.688L235.215 66H233.931ZM243.646 66.144C243.262 66.144 242.974 66.04 242.782 65.832C242.59 65.624 242.494 65.34 242.494 64.98C242.494 64.908 242.502 64.824 242.518 64.728C242.534 64.624 242.55 64.516 242.566 64.404L243.154 60.852H241.45L241.618 59.808H242.77C243.002 59.808 243.174 59.764 243.286 59.676C243.398 59.58 243.474 59.416 243.514 59.184L243.778 57.624H244.978L244.618 59.808H247.114L246.946 60.852H244.438L243.754 64.956L243.994 65.076L246.346 63.408L246.982 64.176L245.89 64.992C245.618 65.2 245.378 65.376 245.17 65.52C244.97 65.664 244.782 65.784 244.606 65.88C244.43 65.968 244.266 66.032 244.114 66.072C243.962 66.12 243.806 66.144 243.646 66.144ZM252.185 66L252.425 64.536H252.377C252.145 65.016 251.865 65.404 251.537 65.7C251.209 65.996 250.777 66.144 250.241 66.144C249.601 66.144 249.125 65.936 248.813 65.52C248.509 65.104 248.357 64.512 248.357 63.744C248.357 63.248 248.413 62.756 248.525 62.268C248.645 61.78 248.825 61.344 249.065 60.96C249.305 60.576 249.605 60.264 249.965 60.024C250.333 59.784 250.765 59.664 251.261 59.664C251.733 59.664 252.109 59.772 252.389 59.988C252.669 60.204 252.865 60.516 252.977 60.924H253.037L253.217 59.808H254.501L253.469 66H252.185ZM250.757 65.1C251.229 65.1 251.653 64.884 252.029 64.452C252.165 64.3 252.293 64.112 252.413 63.888C252.533 63.664 252.617 63.408 252.665 63.12L252.869 61.884C252.933 61.524 252.853 61.24 252.629 61.032C252.413 60.816 252.089 60.708 251.657 60.708C251.121 60.708 250.705 60.872 250.409 61.2C250.121 61.52 249.933 61.932 249.845 62.436L249.701 63.288C249.685 63.36 249.673 63.444 249.665 63.54C249.657 63.628 249.653 63.716 249.653 63.804C249.653 64.196 249.741 64.512 249.917 64.752C250.093 64.984 250.373 65.1 250.757 65.1ZM259.057 58.668C258.753 58.668 258.541 58.612 258.421 58.5C258.301 58.38 258.241 58.24 258.241 58.08C258.241 58.032 258.245 57.976 258.253 57.912C258.261 57.848 258.273 57.78 258.289 57.708C258.329 57.492 258.417 57.324 258.553 57.204C258.697 57.076 258.921 57.012 259.225 57.012C259.529 57.012 259.741 57.072 259.861 57.192C259.981 57.304 260.041 57.44 260.041 57.6C260.041 57.648 260.037 57.704 260.029 57.768C260.021 57.832 260.009 57.9 259.993 57.972C259.953 58.188 259.861 58.36 259.717 58.488C259.581 58.608 259.361 58.668 259.057 58.668ZM258.361 66.144C257.977 66.144 257.689 66.044 257.497 65.844C257.305 65.644 257.209 65.384 257.209 65.064C257.209 64.96 257.217 64.856 257.233 64.752C257.249 64.648 257.269 64.524 257.293 64.38L257.977 60.852H255.889L256.057 59.808H259.453L258.445 65.004L258.685 65.1L260.761 63.192L261.493 63.852L260.557 64.788C260.309 65.036 260.085 65.248 259.885 65.424C259.685 65.592 259.501 65.732 259.333 65.844C259.165 65.948 259.001 66.024 258.841 66.072C258.689 66.12 258.529 66.144 258.361 66.144ZM262.712 66L263.744 59.808H265.028L264.776 61.272H264.836C265.068 60.776 265.34 60.384 265.652 60.096C265.964 59.808 266.372 59.664 266.876 59.664C267.428 59.664 267.844 59.832 268.124 60.168C268.412 60.496 268.556 60.924 268.556 61.452C268.556 61.596 268.548 61.748 268.532 61.908C268.524 62.06 268.5 62.24 268.46 62.448L267.872 66H266.588L267.188 62.4C267.204 62.288 267.22 62.172 267.236 62.052C267.252 61.924 267.26 61.808 267.26 61.704C267.26 61.424 267.188 61.188 267.044 60.996C266.908 60.804 266.68 60.708 266.36 60.708C266.12 60.708 265.904 60.764 265.712 60.876C265.528 60.988 265.356 61.14 265.196 61.332C265.116 61.428 265 61.596 264.848 61.836C264.704 62.076 264.604 62.36 264.548 62.688L263.996 66H262.712ZM272.535 66.144C271.927 66.144 271.399 66.052 270.951 65.868C270.503 65.676 270.155 65.4 269.907 65.04L270.723 64.32C271.163 64.88 271.799 65.16 272.631 65.16C273.103 65.16 273.471 65.076 273.735 64.908C274.007 64.74 274.143 64.5 274.143 64.188C274.143 63.948 274.067 63.784 273.915 63.696C273.771 63.6 273.587 63.532 273.363 63.492L272.463 63.336C272.231 63.296 272.007 63.24 271.791 63.168C271.583 63.096 271.399 63 271.239 62.88C271.079 62.752 270.947 62.592 270.843 62.4C270.747 62.208 270.699 61.972 270.699 61.692C270.699 61.356 270.767 61.064 270.903 60.816C271.047 60.56 271.239 60.348 271.479 60.18C271.727 60.004 272.015 59.876 272.343 59.796C272.671 59.708 273.027 59.664 273.411 59.664C273.963 59.664 274.439 59.748 274.839 59.916C275.247 60.076 275.567 60.296 275.799 60.576L275.007 61.332C274.887 61.164 274.691 61.008 274.419 60.864C274.147 60.72 273.787 60.648 273.339 60.648C272.891 60.648 272.547 60.728 272.307 60.888C272.075 61.048 271.959 61.272 271.959 61.56C271.959 61.808 272.035 61.976 272.187 62.064C272.347 62.152 272.539 62.216 272.763 62.256L273.663 62.424C273.887 62.464 274.103 62.52 274.311 62.592C274.519 62.656 274.703 62.748 274.863 62.868C275.031 62.98 275.163 63.132 275.259 63.324C275.363 63.508 275.415 63.74 275.415 64.02C275.415 64.348 275.347 64.644 275.211 64.908C275.075 65.172 274.879 65.396 274.623 65.58C274.375 65.764 274.071 65.904 273.711 66C273.359 66.096 272.967 66.144 272.535 66.144Z" fill="white"/>
<path d="M40.1894 5.66799C39.8854 5.66799 39.6734 5.61199 39.5534 5.49999C39.4334 5.37999 39.3734 5.23999 39.3734 5.07999C39.3734 5.03199 39.3774 4.97599 39.3854 4.91199C39.3934 4.84799 39.4054 4.77999 39.4214 4.70799C39.4614 4.49199 39.5494 4.32399 39.6854 4.20399C39.8294 4.07599 40.0534 4.01199 40.3574 4.01199C40.6614 4.01199 40.8734 4.07199 40.9934 4.19199C41.1134 4.30399 41.1734 4.43999 41.1734 4.59999C41.1734 4.64799 41.1694 4.70399 41.1614 4.76799C41.1534 4.83199 41.1414 4.89999 41.1254 4.97199C41.0854 5.18799 40.9934 5.35999 40.8494 5.48799C40.7134 5.60799 40.4934 5.66799 40.1894 5.66799ZM39.4934 13.144C39.1094 13.144 38.8214 13.044 38.6294 12.844C38.4374 12.644 38.3414 12.384 38.3414 12.064C38.3414 11.96 38.3494 11.856 38.3654 11.752C38.3814 11.648 38.4014 11.524 38.4254 11.38L39.1094 7.85199H37.0214L37.1894 6.80799H40.5854L39.5774 12.004L39.8174 12.1L41.8934 10.192L42.6254 10.852L41.6894 11.788C41.4414 12.036 41.2174 12.248 41.0174 12.424C40.8174 12.592 40.6334 12.732 40.4654 12.844C40.2974 12.948 40.1334 13.024 39.9734 13.072C39.8214 13.12 39.6614 13.144 39.4934 13.144ZM46.4727 13.144C45.8647 13.144 45.3367 13.052 44.8887 12.868C44.4407 12.676 44.0927 12.4 43.8447 12.04L44.6607 11.32C45.1007 11.88 45.7367 12.16 46.5687 12.16C47.0407 12.16 47.4087 12.076 47.6727 11.908C47.9447 11.74 48.0807 11.5 48.0807 11.188C48.0807 10.948 48.0047 10.784 47.8527 10.696C47.7087 10.6 47.5247 10.532 47.3007 10.492L46.4007 10.336C46.1687 10.296 45.9447 10.24 45.7287 10.168C45.5207 10.096 45.3367 9.99999 45.1767 9.87999C45.0167 9.75199 44.8847 9.59199 44.7807 9.39999C44.6847 9.20799 44.6367 8.97199 44.6367 8.69199C44.6367 8.35599 44.7047 8.06399 44.8407 7.81599C44.9847 7.55999 45.1767 7.34799 45.4167 7.17999C45.6647 7.00399 45.9527 6.87599 46.2807 6.79599C46.6087 6.70799 46.9647 6.66399 47.3487 6.66399C47.9007 6.66399 48.3767 6.74799 48.7767 6.91599C49.1847 7.07599 49.5047 7.29599 49.7367 7.57599L48.9447 8.33199C48.8247 8.16399 48.6287 8.00799 48.3567 7.86399C48.0847 7.71999 47.7247 7.64799 47.2767 7.64799C46.8287 7.64799 46.4847 7.72799 46.2447 7.88799C46.0127 8.04799 45.8967 8.27199 45.8967 8.55999C45.8967 8.80799 45.9727 8.97599 46.1247 9.06399C46.2847 9.15199 46.4767 9.21599 46.7007 9.25599L47.6007 9.42399C47.8247 9.46399 48.0407 9.51999 48.2487 9.59199C48.4567 9.65599 48.6407 9.74799 48.8007 9.86799C48.9687 9.97999 49.1007 10.132 49.1967 10.324C49.3007 10.508 49.3527 10.74 49.3527 11.02C49.3527 11.348 49.2847 11.644 49.1487 11.908C49.0127 12.172 48.8167 12.396 48.5607 12.58C48.3127 12.764 48.0087 12.904 47.6487 13C47.2967 13.096 46.9047 13.144 46.4727 13.144ZM62.0993 13L62.3393 11.536H62.2913C62.0593 12.016 61.7793 12.404 61.4513 12.7C61.1233 12.996 60.6913 13.144 60.1553 13.144C59.5153 13.144 59.0393 12.936 58.7273 12.52C58.4233 12.104 58.2713 11.512 58.2713 10.744C58.2713 10.248 58.3273 9.75599 58.4393 9.26799C58.5593 8.77999 58.7393 8.34399 58.9793 7.95999C59.2193 7.57599 59.5193 7.26399 59.8793 7.02399C60.2473 6.78399 60.6793 6.66399 61.1753 6.66399C61.6473 6.66399 62.0233 6.77199 62.3033 6.98799C62.5833 7.20399 62.7793 7.51599 62.8913 7.92399H62.9513L63.1313 6.80799H64.4153L63.3833 13H62.0993ZM60.6713 12.1C61.1433 12.1 61.5673 11.884 61.9433 11.452C62.0793 11.3 62.2073 11.112 62.3273 10.888C62.4473 10.664 62.5313 10.408 62.5793 10.12L62.7833 8.88399C62.8473 8.52399 62.7673 8.23999 62.5433 8.03199C62.3273 7.81599 62.0033 7.70799 61.5713 7.70799C61.0353 7.70799 60.6193 7.87199 60.3233 8.19999C60.0353 8.51999 59.8473 8.93199 59.7593 9.43599L59.6153 10.288C59.5993 10.36 59.5873 10.444 59.5793 10.54C59.5713 10.628 59.5673 10.716 59.5673 10.804C59.5673 11.196 59.6553 11.512 59.8313 11.752C60.0073 11.984 60.2873 12.1 60.6713 12.1Z" fill="white" fill-opacity="0.5"/>
<path d="M442.189 5.66799C441.885 5.66799 441.673 5.61199 441.553 5.49999C441.433 5.37999 441.373 5.23999 441.373 5.07999C441.373 5.03199 441.377 4.97599 441.385 4.91199C441.393 4.84799 441.405 4.77999 441.421 4.70799C441.461 4.49199 441.549 4.32399 441.685 4.20399C441.829 4.07599 442.053 4.01199 442.357 4.01199C442.661 4.01199 442.873 4.07199 442.993 4.19199C443.113 4.30399 443.173 4.43999 443.173 4.59999C443.173 4.64799 443.169 4.70399 443.161 4.76799C443.153 4.83199 443.141 4.89999 443.125 4.97199C443.085 5.18799 442.993 5.35999 442.849 5.48799C442.713 5.60799 442.493 5.66799 442.189 5.66799ZM441.493 13.144C441.109 13.144 440.821 13.044 440.629 12.844C440.437 12.644 440.341 12.384 440.341 12.064C440.341 11.96 440.349 11.856 440.365 11.752C440.381 11.648 440.401 11.524 440.425 11.38L441.109 7.85199H439.021L439.189 6.80799H442.585L441.577 12.004L441.817 12.1L443.893 10.192L444.625 10.852L443.689 11.788C443.441 12.036 443.217 12.248 443.017 12.424C442.817 12.592 442.633 12.732 442.465 12.844C442.297 12.948 442.133 13.024 441.973 13.072C441.821 13.12 441.661 13.144 441.493 13.144ZM448.473 13.144C447.865 13.144 447.337 13.052 446.889 12.868C446.441 12.676 446.093 12.4 445.845 12.04L446.661 11.32C447.101 11.88 447.737 12.16 448.569 12.16C449.041 12.16 449.409 12.076 449.673 11.908C449.945 11.74 450.081 11.5 450.081 11.188C450.081 10.948 450.005 10.784 449.853 10.696C449.709 10.6 449.525 10.532 449.301 10.492L448.401 10.336C448.169 10.296 447.945 10.24 447.729 10.168C447.521 10.096 447.337 9.99999 447.177 9.87999C447.017 9.75199 446.885 9.59199 446.781 9.39999C446.685 9.20799 446.637 8.97199 446.637 8.69199C446.637 8.35599 446.705 8.06399 446.841 7.81599C446.985 7.55999 447.177 7.34799 447.417 7.17999C447.665 7.00399 447.953 6.87599 448.281 6.79599C448.609 6.70799 448.965 6.66399 449.349 6.66399C449.901 6.66399 450.377 6.74799 450.777 6.91599C451.185 7.07599 451.505 7.29599 451.737 7.57599L450.945 8.33199C450.825 8.16399 450.629 8.00799 450.357 7.86399C450.085 7.71999 449.725 7.64799 449.277 7.64799C448.829 7.64799 448.485 7.72799 448.245 7.88799C448.013 8.04799 447.897 8.27199 447.897 8.55999C447.897 8.80799 447.973 8.97599 448.125 9.06399C448.285 9.15199 448.477 9.21599 448.701 9.25599L449.601 9.42399C449.825 9.46399 450.041 9.51999 450.249 9.59199C450.457 9.65599 450.641 9.74799 450.801 9.86799C450.969 9.97999 451.101 10.132 451.197 10.324C451.301 10.508 451.353 10.74 451.353 11.02C451.353 11.348 451.285 11.644 451.149 11.908C451.013 12.172 450.817 12.396 450.561 12.58C450.313 12.764 450.009 12.904 449.649 13C449.297 13.096 448.905 13.144 448.473 13.144ZM464.099 13L464.339 11.536H464.291C464.059 12.016 463.779 12.404 463.451 12.7C463.123 12.996 462.691 13.144 462.155 13.144C461.515 13.144 461.039 12.936 460.727 12.52C460.423 12.104 460.271 11.512 460.271 10.744C460.271 10.248 460.327 9.75599 460.439 9.26799C460.559 8.77999 460.739 8.34399 460.979 7.95999C461.219 7.57599 461.519 7.26399 461.879 7.02399C462.247 6.78399 462.679 6.66399 463.175 6.66399C463.647 6.66399 464.023 6.77199 464.303 6.98799C464.583 7.20399 464.779 7.51599 464.891 7.92399H464.951L465.131 6.80799H466.415L465.383 13H464.099ZM462.671 12.1C463.143 12.1 463.567 11.884 463.943 11.452C464.079 11.3 464.207 11.112 464.327 10.888C464.447 10.664 464.531 10.408 464.579 10.12L464.783 8.88399C464.847 8.52399 464.767 8.23999 464.543 8.03199C464.327 7.81599 464.003 7.70799 463.571 7.70799C463.035 7.70799 462.619 7.87199 462.323 8.19999C462.035 8.51999 461.847 8.93199 461.759 9.43599L461.615 10.288C461.599 10.36 461.587 10.444 461.579 10.54C461.571 10.628 461.567 10.716 461.567 10.804C461.567 11.196 461.655 11.512 461.831 11.752C462.007 11.984 462.287 12.1 462.671 12.1Z" fill="white" fill-opacity="0.5"/>
<path d="M113.032 89V80.624H118.42V81.752H114.376V84.188H118.048V85.316H114.376V89H113.032ZM122.795 89.144C122.339 89.144 121.927 89.068 121.559 88.916C121.199 88.764 120.891 88.548 120.635 88.268C120.387 87.988 120.195 87.648 120.059 87.248C119.923 86.848 119.855 86.4 119.855 85.904C119.855 85.408 119.923 84.96 120.059 84.56C120.195 84.16 120.387 83.82 120.635 83.54C120.891 83.26 121.199 83.044 121.559 82.892C121.927 82.74 122.339 82.664 122.795 82.664C123.251 82.664 123.659 82.74 124.019 82.892C124.387 83.044 124.695 83.26 124.943 83.54C125.199 83.82 125.395 84.16 125.531 84.56C125.667 84.96 125.735 85.408 125.735 85.904C125.735 86.4 125.667 86.848 125.531 87.248C125.395 87.648 125.199 87.988 124.943 88.268C124.695 88.548 124.387 88.764 124.019 88.916C123.659 89.068 123.251 89.144 122.795 89.144ZM122.795 88.112C123.275 88.112 123.655 87.968 123.935 87.68C124.223 87.384 124.367 86.948 124.367 86.372V85.436C124.367 84.86 124.223 84.428 123.935 84.14C123.655 83.844 123.275 83.696 122.795 83.696C122.315 83.696 121.931 83.844 121.643 84.14C121.363 84.428 121.223 84.86 121.223 85.436V86.372C121.223 86.948 121.363 87.384 121.643 87.68C121.931 87.968 122.315 88.112 122.795 88.112ZM129.991 89.144C129.535 89.144 129.123 89.068 128.755 88.916C128.395 88.764 128.087 88.548 127.831 88.268C127.583 87.988 127.391 87.648 127.255 87.248C127.119 86.848 127.051 86.4 127.051 85.904C127.051 85.408 127.119 84.96 127.255 84.56C127.391 84.16 127.583 83.82 127.831 83.54C128.087 83.26 128.395 83.044 128.755 82.892C129.123 82.74 129.535 82.664 129.991 82.664C130.447 82.664 130.855 82.74 131.215 82.892C131.583 83.044 131.891 83.26 132.139 83.54C132.395 83.82 132.591 84.16 132.727 84.56C132.863 84.96 132.931 85.408 132.931 85.904C132.931 86.4 132.863 86.848 132.727 87.248C132.591 87.648 132.395 87.988 132.139 88.268C131.891 88.548 131.583 88.764 131.215 88.916C130.855 89.068 130.447 89.144 129.991 89.144ZM129.991 88.112C130.471 88.112 130.851 87.968 131.131 87.68C131.419 87.384 131.563 86.948 131.563 86.372V85.436C131.563 84.86 131.419 84.428 131.131 84.14C130.851 83.844 130.471 83.696 129.991 83.696C129.511 83.696 129.127 83.844 128.839 84.14C128.559 84.428 128.419 84.86 128.419 85.436V86.372C128.419 86.948 128.559 87.384 128.839 87.68C129.127 87.968 129.511 88.112 129.991 88.112ZM138.53 87.944H138.458C138.274 88.32 138.03 88.616 137.726 88.832C137.422 89.04 137.042 89.144 136.586 89.144C135.858 89.144 135.278 88.872 134.846 88.328C134.414 87.784 134.198 86.976 134.198 85.904C134.198 84.832 134.414 84.024 134.846 83.48C135.278 82.936 135.858 82.664 136.586 82.664C137.042 82.664 137.422 82.772 137.726 82.988C138.03 83.196 138.274 83.488 138.458 83.864H138.53V80.12H139.838V89H138.53V87.944ZM137.126 88.076C137.318 88.076 137.498 88.052 137.666 88.004C137.834 87.956 137.982 87.884 138.11 87.788C138.238 87.692 138.338 87.576 138.41 87.44C138.49 87.296 138.53 87.128 138.53 86.936V84.872C138.53 84.68 138.49 84.516 138.41 84.38C138.338 84.236 138.238 84.116 138.11 84.02C137.982 83.924 137.834 83.852 137.666 83.804C137.498 83.756 137.318 83.732 137.126 83.732C136.63 83.732 136.246 83.884 135.974 84.188C135.71 84.492 135.578 84.896 135.578 85.4V86.408C135.578 86.912 135.71 87.316 135.974 87.62C136.246 87.924 136.63 88.076 137.126 88.076Z" fill="white"/>
<path d="M126 123C147.539 123 165 105.539 165 84C165 62.4609 147.539 45 126 45C104.461 45 87 62.4609 87 84C87 105.539 104.461 123 126 123Z" stroke="white" stroke-width="2"/>
<path d="M348.84 89.144C347.776 89.144 346.984 88.768 346.464 88.016C345.952 87.264 345.696 86.196 345.696 84.812C345.696 83.428 345.952 82.36 346.464 81.608C346.984 80.856 347.776 80.48 348.84 80.48C349.248 80.48 349.6 80.536 349.896 80.648C350.2 80.752 350.46 80.9 350.676 81.092C350.892 81.276 351.072 81.496 351.216 81.752C351.368 82 351.492 82.268 351.588 82.556L350.376 82.964C350.312 82.772 350.24 82.592 350.16 82.424C350.08 82.256 349.98 82.112 349.86 81.992C349.74 81.872 349.596 81.776 349.428 81.704C349.268 81.632 349.068 81.596 348.828 81.596C348.236 81.596 347.804 81.824 347.532 82.28C347.26 82.728 347.124 83.336 347.124 84.104V85.52C347.124 86.288 347.26 86.9 347.532 87.356C347.804 87.804 348.236 88.028 348.828 88.028C349.068 88.028 349.268 87.992 349.428 87.92C349.596 87.848 349.74 87.752 349.86 87.632C349.98 87.512 350.08 87.368 350.16 87.2C350.24 87.032 350.312 86.852 350.376 86.66L351.588 87.068C351.492 87.356 351.368 87.628 351.216 87.884C351.072 88.132 350.892 88.352 350.676 88.544C350.46 88.728 350.2 88.876 349.896 88.988C349.6 89.092 349.248 89.144 348.84 89.144ZM353.203 80.12H354.511V83.864H354.571C354.635 83.704 354.715 83.552 354.811 83.408C354.915 83.256 355.039 83.128 355.183 83.024C355.327 82.912 355.495 82.824 355.687 82.76C355.879 82.696 356.103 82.664 356.359 82.664C356.983 82.664 357.487 82.868 357.871 83.276C358.255 83.684 358.447 84.264 358.447 85.016V89H357.139V85.208C357.139 84.224 356.711 83.732 355.855 83.732C355.687 83.732 355.523 83.756 355.363 83.804C355.203 83.844 355.059 83.908 354.931 83.996C354.803 84.084 354.699 84.196 354.619 84.332C354.547 84.468 354.511 84.624 354.511 84.8V89H353.203V80.12ZM363.123 89.144C362.651 89.144 362.227 89.068 361.851 88.916C361.475 88.764 361.159 88.548 360.903 88.268C360.647 87.988 360.451 87.652 360.315 87.26C360.179 86.86 360.111 86.412 360.111 85.916C360.111 85.42 360.179 84.972 360.315 84.572C360.459 84.172 360.655 83.832 360.903 83.552C361.159 83.264 361.467 83.044 361.827 82.892C362.187 82.74 362.587 82.664 363.027 82.664C363.459 82.664 363.851 82.74 364.203 82.892C364.555 83.036 364.855 83.244 365.103 83.516C365.351 83.788 365.539 84.112 365.667 84.488C365.803 84.864 365.871 85.28 365.871 85.736V86.228H361.431V86.432C361.431 86.92 361.583 87.32 361.887 87.632C362.191 87.936 362.611 88.088 363.147 88.088C363.547 88.088 363.887 88.004 364.167 87.836C364.455 87.66 364.687 87.428 364.863 87.14L365.679 87.86C365.471 88.22 365.151 88.524 364.719 88.772C364.295 89.02 363.763 89.144 363.123 89.144ZM363.027 83.66C362.795 83.66 362.579 83.7 362.379 83.78C362.187 83.86 362.019 83.976 361.875 84.128C361.739 84.272 361.631 84.444 361.551 84.644C361.471 84.844 361.431 85.064 361.431 85.304V85.388H364.539V85.268C364.539 84.78 364.399 84.392 364.119 84.104C363.847 83.808 363.483 83.66 363.027 83.66ZM367.114 89V82.808H368.23V83.612H368.29C368.386 83.348 368.522 83.124 368.698 82.94C368.882 82.756 369.142 82.664 369.478 82.664C369.806 82.664 370.058 82.756 370.234 82.94C370.418 83.116 370.534 83.36 370.582 83.672H370.63C370.742 83.392 370.898 83.156 371.098 82.964C371.298 82.764 371.586 82.664 371.962 82.664C372.442 82.664 372.774 82.832 372.958 83.168C373.15 83.504 373.246 83.996 373.246 84.644V89H372.13V84.812C372.13 84.38 372.078 84.084 371.974 83.924C371.87 83.756 371.702 83.672 371.47 83.672C371.262 83.672 371.086 83.744 370.942 83.888C370.806 84.024 370.738 84.232 370.738 84.512V89H369.622V84.812C369.622 84.38 369.57 84.084 369.466 83.924C369.37 83.756 369.206 83.672 368.974 83.672C368.758 83.672 368.578 83.744 368.434 83.888C368.298 84.024 368.23 84.232 368.23 84.512V89H367.114ZM377.765 81.68C377.429 81.68 377.193 81.612 377.057 81.476C376.929 81.34 376.865 81.172 376.865 80.972V80.72C376.865 80.52 376.929 80.352 377.057 80.216C377.193 80.08 377.425 80.012 377.753 80.012C378.089 80.012 378.321 80.08 378.449 80.216C378.585 80.352 378.653 80.52 378.653 80.72V80.972C378.653 81.172 378.585 81.34 378.449 81.476C378.321 81.612 378.093 81.68 377.765 81.68ZM374.993 87.944H377.105V83.864H374.993V82.808H378.413V87.944H380.393V89H374.993V87.944ZM384.805 89.144C384.341 89.144 383.925 89.068 383.557 88.916C383.197 88.764 382.889 88.548 382.633 88.268C382.385 87.988 382.193 87.648 382.057 87.248C381.929 86.848 381.865 86.4 381.865 85.904C381.865 85.408 381.929 84.96 382.057 84.56C382.193 84.16 382.385 83.82 382.633 83.54C382.889 83.26 383.197 83.044 383.557 82.892C383.925 82.74 384.337 82.664 384.793 82.664C385.433 82.664 385.945 82.8 386.329 83.072C386.721 83.344 387.013 83.696 387.205 84.128L386.185 84.68C386.073 84.392 385.901 84.164 385.669 83.996C385.445 83.828 385.153 83.744 384.793 83.744C384.297 83.744 383.913 83.896 383.641 84.2C383.369 84.496 383.233 84.892 383.233 85.388V86.42C383.233 86.908 383.369 87.304 383.641 87.608C383.913 87.912 384.305 88.064 384.817 88.064C385.201 88.064 385.513 87.976 385.753 87.8C386.001 87.624 386.197 87.384 386.341 87.08L387.301 87.668C387.101 88.1 386.797 88.456 386.389 88.736C385.981 89.008 385.453 89.144 384.805 89.144ZM394.076 89C393.7 89 393.416 88.904 393.224 88.712C393.04 88.52 392.928 88.268 392.888 87.956H392.828C392.708 88.332 392.488 88.624 392.168 88.832C391.856 89.04 391.456 89.144 390.968 89.144C390.336 89.144 389.832 88.98 389.456 88.652C389.08 88.316 388.892 87.856 388.892 87.272C388.892 86.672 389.112 86.216 389.552 85.904C390 85.584 390.684 85.424 391.604 85.424H392.792V84.944C392.792 84.104 392.348 83.684 391.46 83.684C391.06 83.684 390.736 83.764 390.488 83.924C390.24 84.076 390.032 84.28 389.864 84.536L389.084 83.9C389.26 83.564 389.556 83.276 389.972 83.036C390.388 82.788 390.924 82.664 391.58 82.664C392.364 82.664 392.98 82.852 393.428 83.228C393.876 83.604 394.1 84.148 394.1 84.86V87.968H394.88V89H394.076ZM391.34 88.184C391.764 88.184 392.112 88.088 392.384 87.896C392.656 87.704 392.792 87.456 392.792 87.152V86.252H391.628C390.684 86.252 390.212 86.536 390.212 87.104V87.344C390.212 87.624 390.312 87.836 390.512 87.98C390.712 88.116 390.988 88.184 391.34 88.184ZM396.267 87.944H398.319V81.176H396.267V80.12H399.627V87.944H401.679V89H396.267V87.944Z" fill="white"/>
<path d="M374 123C395.539 123 413 105.539 413 84C413 62.4609 395.539 45 374 45C352.461 45 335 62.4609 335 84C335 105.539 352.461 123 374 123Z" stroke="white" stroke-width="2"/>
<path d="M248 336C269.539 336 287 318.539 287 297C287 275.461 269.539 258 248 258C226.461 258 209 275.461 209 297C209 318.539 226.461 336 248 336Z" stroke="white" stroke-width="2"/>
<path d="M325.707 84.7071C326.098 84.3166 326.098 83.6834 325.707 83.2929L319.343 76.9289C318.953 76.5384 318.319 76.5384 317.929 76.9289C317.538 77.3195 317.538 77.9526 317.929 78.3431L323.586 84L317.929 89.6569C317.538 90.0474 317.538 90.6805 317.929 91.0711C318.319 91.4616 318.953 91.4616 319.343 91.0711L325.707 84.7071ZM175 85H325V83H175V85Z" fill="white"/>
<path d="M271.917 255.973C272.061 256.506 272.61 256.822 273.143 256.677L281.832 254.332C282.365 254.188 282.681 253.639 282.537 253.106C282.393 252.572 281.845 252.257 281.311 252.401L273.587 254.486L271.503 246.762C271.359 246.229 270.81 245.913 270.277 246.058C269.744 246.201 269.428 246.751 269.572 247.283L271.917 255.973ZM346.776 125.172L272.016 255.214L273.75 256.21L348.51 126.169L346.776 125.172Z" fill="white"/>
<path d="M223.984 293.624H226.48C227.552 293.624 228.344 293.98 228.856 294.692C229.376 295.404 229.636 296.444 229.636 297.812C229.636 299.18 229.376 300.22 228.856 300.932C228.344 301.644 227.552 302 226.48 302H223.984V293.624ZM226.396 300.896C227.012 300.896 227.468 300.692 227.764 300.284C228.068 299.868 228.22 299.276 228.22 298.508V297.116C228.22 296.348 228.068 295.76 227.764 295.352C227.468 294.936 227.012 294.728 226.396 294.728H225.316V300.896H226.396ZM234.179 294.68C233.843 294.68 233.607 294.612 233.471 294.476C233.343 294.34 233.279 294.172 233.279 293.972V293.72C233.279 293.52 233.343 293.352 233.471 293.216C233.607 293.08 233.839 293.012 234.167 293.012C234.503 293.012 234.735 293.08 234.863 293.216C234.999 293.352 235.067 293.52 235.067 293.72V293.972C235.067 294.172 234.999 294.34 234.863 294.476C234.735 294.612 234.507 294.68 234.179 294.68ZM231.407 300.944H233.519V296.864H231.407V295.808H234.827V300.944H236.807V302H231.407V300.944ZM241.003 302.144C240.331 302.144 239.751 302.036 239.263 301.82C238.783 301.604 238.395 301.316 238.099 300.956L238.903 300.236C239.175 300.532 239.479 300.76 239.815 300.92C240.159 301.072 240.563 301.148 241.027 301.148C241.451 301.148 241.791 301.076 242.047 300.932C242.311 300.788 242.443 300.564 242.443 300.26C242.443 300.132 242.419 300.024 242.371 299.936C242.323 299.848 242.255 299.776 242.167 299.72C242.079 299.664 241.975 299.62 241.855 299.588C241.743 299.556 241.623 299.532 241.495 299.516L240.511 299.36C240.271 299.328 240.027 299.276 239.779 299.204C239.531 299.132 239.307 299.032 239.107 298.904C238.915 298.768 238.755 298.596 238.627 298.388C238.507 298.18 238.447 297.916 238.447 297.596C238.447 296.964 238.687 296.484 239.167 296.156C239.655 295.828 240.295 295.664 241.087 295.664C241.663 295.664 242.159 295.752 242.575 295.928C242.999 296.096 243.351 296.332 243.631 296.636L242.899 297.404C242.739 297.22 242.511 297.052 242.215 296.9C241.919 296.74 241.527 296.66 241.039 296.66C240.167 296.66 239.731 296.936 239.731 297.488C239.731 297.752 239.823 297.936 240.007 298.04C240.199 298.136 240.423 298.2 240.679 298.232L241.663 298.388C241.911 298.428 242.155 298.48 242.395 298.544C242.643 298.608 242.863 298.708 243.055 298.844C243.255 298.972 243.415 299.14 243.535 299.348C243.663 299.556 243.727 299.82 243.727 300.14C243.727 300.764 243.483 301.256 242.995 301.616C242.515 301.968 241.851 302.144 241.003 302.144ZM248.318 302.144C247.846 302.144 247.422 302.068 247.046 301.916C246.67 301.764 246.354 301.548 246.098 301.268C245.842 300.988 245.646 300.652 245.51 300.26C245.374 299.86 245.306 299.412 245.306 298.916C245.306 298.42 245.374 297.972 245.51 297.572C245.654 297.172 245.85 296.832 246.098 296.552C246.354 296.264 246.662 296.044 247.022 295.892C247.382 295.74 247.782 295.664 248.222 295.664C248.654 295.664 249.046 295.74 249.398 295.892C249.75 296.036 250.05 296.244 250.298 296.516C250.546 296.788 250.734 297.112 250.862 297.488C250.998 297.864 251.066 298.28 251.066 298.736V299.228H246.626V299.432C246.626 299.92 246.778 300.32 247.082 300.632C247.386 300.936 247.806 301.088 248.342 301.088C248.742 301.088 249.082 301.004 249.362 300.836C249.65 300.66 249.882 300.428 250.058 300.14L250.874 300.86C250.666 301.22 250.346 301.524 249.914 301.772C249.49 302.02 248.958 302.144 248.318 302.144ZM248.222 296.66C247.99 296.66 247.774 296.7 247.574 296.78C247.382 296.86 247.214 296.976 247.07 297.128C246.934 297.272 246.826 297.444 246.746 297.644C246.666 297.844 246.626 298.064 246.626 298.304V298.388H249.734V298.268C249.734 297.78 249.594 297.392 249.314 297.104C249.042 296.808 248.678 296.66 248.222 296.66ZM257.685 302C257.309 302 257.025 301.904 256.833 301.712C256.649 301.52 256.537 301.268 256.497 300.956H256.437C256.317 301.332 256.097 301.624 255.777 301.832C255.465 302.04 255.065 302.144 254.577 302.144C253.945 302.144 253.441 301.98 253.065 301.652C252.689 301.316 252.501 300.856 252.501 300.272C252.501 299.672 252.721 299.216 253.161 298.904C253.609 298.584 254.293 298.424 255.213 298.424H256.401V297.944C256.401 297.104 255.957 296.684 255.069 296.684C254.669 296.684 254.345 296.764 254.097 296.924C253.849 297.076 253.641 297.28 253.473 297.536L252.693 296.9C252.869 296.564 253.165 296.276 253.581 296.036C253.997 295.788 254.533 295.664 255.189 295.664C255.973 295.664 256.589 295.852 257.037 296.228C257.485 296.604 257.709 297.148 257.709 297.86V300.968H258.489V302H257.685ZM254.949 301.184C255.373 301.184 255.721 301.088 255.993 300.896C256.265 300.704 256.401 300.456 256.401 300.152V299.252H255.237C254.293 299.252 253.821 299.536 253.821 300.104V300.344C253.821 300.624 253.921 300.836 254.121 300.98C254.321 301.116 254.597 301.184 254.949 301.184ZM262.589 302.144C261.917 302.144 261.337 302.036 260.849 301.82C260.369 301.604 259.981 301.316 259.685 300.956L260.489 300.236C260.761 300.532 261.065 300.76 261.401 300.92C261.745 301.072 262.149 301.148 262.613 301.148C263.037 301.148 263.377 301.076 263.633 300.932C263.897 300.788 264.029 300.564 264.029 300.26C264.029 300.132 264.005 300.024 263.957 299.936C263.909 299.848 263.841 299.776 263.753 299.72C263.665 299.664 263.561 299.62 263.441 299.588C263.329 299.556 263.209 299.532 263.081 299.516L262.097 299.36C261.857 299.328 261.613 299.276 261.365 299.204C261.117 299.132 260.893 299.032 260.693 298.904C260.501 298.768 260.341 298.596 260.213 298.388C260.093 298.18 260.033 297.916 260.033 297.596C260.033 296.964 260.273 296.484 260.753 296.156C261.241 295.828 261.881 295.664 262.673 295.664C263.249 295.664 263.745 295.752 264.161 295.928C264.585 296.096 264.937 296.332 265.217 296.636L264.485 297.404C264.325 297.22 264.097 297.052 263.801 296.9C263.505 296.74 263.113 296.66 262.625 296.66C261.753 296.66 261.317 296.936 261.317 297.488C261.317 297.752 261.409 297.936 261.593 298.04C261.785 298.136 262.009 298.2 262.265 298.232L263.249 298.388C263.497 298.428 263.741 298.48 263.981 298.544C264.229 298.608 264.449 298.708 264.641 298.844C264.841 298.972 265.001 299.14 265.121 299.348C265.249 299.556 265.313 299.82 265.313 300.14C265.313 300.764 265.069 301.256 264.581 301.616C264.101 301.968 263.437 302.144 262.589 302.144ZM269.904 302.144C269.432 302.144 269.008 302.068 268.632 301.916C268.256 301.764 267.94 301.548 267.684 301.268C267.428 300.988 267.232 300.652 267.096 300.26C266.96 299.86 266.892 299.412 266.892 298.916C266.892 298.42 266.96 297.972 267.096 297.572C267.24 297.172 267.436 296.832 267.684 296.552C267.94 296.264 268.248 296.044 268.608 295.892C268.968 295.74 269.368 295.664 269.808 295.664C270.24 295.664 270.632 295.74 270.984 295.892C271.336 296.036 271.636 296.244 271.884 296.516C272.132 296.788 272.32 297.112 272.448 297.488C272.584 297.864 272.652 298.28 272.652 298.736V299.228H268.212V299.432C268.212 299.92 268.364 300.32 268.668 300.632C268.972 300.936 269.392 301.088 269.928 301.088C270.328 301.088 270.668 301.004 270.948 300.836C271.236 300.66 271.468 300.428 271.644 300.14L272.46 300.86C272.252 301.22 271.932 301.524 271.5 301.772C271.076 302.02 270.544 302.144 269.904 302.144ZM269.808 296.66C269.576 296.66 269.36 296.7 269.16 296.78C268.968 296.86 268.8 296.976 268.656 297.128C268.52 297.272 268.412 297.444 268.332 297.644C268.252 297.844 268.212 298.064 268.212 298.304V298.388H271.32V298.268C271.32 297.78 271.18 297.392 270.9 297.104C270.628 296.808 270.264 296.66 269.808 296.66Z" fill="white"/>
<path d="M106.915 39.6481C107.443 39.8105 108.002 39.5143 108.165 38.9864L110.811 30.3844C110.974 29.8565 110.678 29.2969 110.15 29.1345C109.622 28.9721 109.062 29.2684 108.9 29.7962L106.547 37.4424L98.901 35.0898C98.3731 34.9273 97.8136 35.2236 97.6511 35.7515C97.4887 36.2793 97.785 36.8389 98.3128 37.0013L106.915 39.6481ZM81.1603 64.325L79.5488 63.4719L78.613 65.2394L80.2245 66.0926L81.1603 64.325ZM76.3257 61.7655L74.7141 60.9123L73.7783 62.6799L75.3899 63.5331L76.3257 61.7655ZM74.7141 60.9123C73.8321 60.4454 72.9934 59.9208 72.2014 59.3449L71.0251 60.9624C71.8932 61.5937 72.8122 62.1684 73.7783 62.6799L74.7141 60.9123ZM67.9652 55.2284C66.7558 53.6621 65.7745 51.9309 65.052 50.0887L63.1901 50.819C63.9818 52.8376 65.057 54.7345 66.3822 56.4507L67.9652 55.2284ZM63.6962 44.3395C63.6089 43.3642 63.5897 42.3751 63.6422 41.3785L61.6449 41.2734C61.5875 42.365 61.6085 43.4488 61.7042 44.5178L63.6962 44.3395ZM63.6422 41.3785C63.6874 40.5192 63.7843 39.6741 63.9297 38.8463L61.9598 38.5003C61.8005 39.4075 61.6944 40.333 61.6449 41.2734L63.6422 41.3785ZM65.4144 33.9862C66.1109 32.4233 66.9939 30.9621 68.0353 29.6306L66.46 28.3984C65.3191 29.8571 64.3513 31.4585 63.5876 33.172L65.4144 33.9862ZM71.6307 26.0352C72.9622 24.9938 74.4235 24.1108 75.9864 23.4142L75.1722 21.5875C73.4586 22.3512 71.8572 23.319 70.3986 24.4599L71.6307 26.0352ZM80.8464 21.9296C81.6742 21.7841 82.5193 21.6873 83.3786 21.642L83.2735 19.6448C82.3331 19.6943 81.4076 19.8004 80.5004 19.9597L80.8464 21.9296ZM83.3786 21.642C84.3753 21.5896 85.3643 21.6088 86.3396 21.6961L86.5179 19.7041C85.4489 19.6084 84.3651 19.5874 83.2735 19.6448L83.3786 21.642ZM92.0889 23.0519C93.931 23.7744 95.6623 24.7557 97.2285 25.965L98.4508 24.3821C96.7346 23.0569 94.8377 21.9817 92.8191 21.19L92.0889 23.0519ZM101.345 30.2013C101.921 30.9933 102.445 31.832 102.912 32.714L104.68 31.7782C104.169 30.8121 103.594 29.8931 102.963 29.025L101.345 30.2013ZM102.912 32.714L103.766 34.3256L105.533 33.3898L104.68 31.7782L102.912 32.714ZM105.472 37.5487L106.325 39.1602L108.093 38.2244L107.24 36.6129L105.472 37.5487Z" fill="white" fill-opacity="0.5"/>
<path d="M421.98 64.9148C421.818 65.4427 422.114 66.0023 422.642 66.1647L431.244 68.8115C431.772 68.9739 432.331 68.6776 432.494 68.1498C432.656 67.6219 432.36 67.0623 431.832 66.8999L424.186 64.5472L426.538 56.901C426.701 56.3731 426.405 55.8136 425.877 55.6511C425.349 55.4887 424.789 55.785 424.627 56.3128L421.98 64.9148ZM397.303 39.1603L398.156 37.5488L396.389 36.613L395.536 38.2245L397.303 39.1603ZM399.863 34.3257L400.716 32.7141L398.948 31.7783L398.095 33.3899L399.863 34.3257ZM400.716 32.7141C401.183 31.8321 401.707 30.9934 402.283 30.2014L400.666 29.0251C400.035 29.8932 399.46 30.8122 398.948 31.7783L400.716 32.7141ZM406.4 25.9652C407.966 24.7558 409.697 23.7745 411.539 23.052L410.809 21.1901C408.791 21.9818 406.894 23.057 405.178 24.3822L406.4 25.9652ZM417.289 21.6962C418.264 21.6089 419.253 21.5897 420.25 21.6422L420.355 19.6449C419.263 19.5875 418.179 19.6085 417.11 19.7042L417.289 21.6962ZM420.25 21.6422C421.109 21.6874 421.954 21.7843 422.782 21.9297L423.128 19.9598C422.221 19.8005 421.295 19.6944 420.355 19.6449L420.25 21.6422ZM427.642 23.4144C429.205 24.1109 430.666 24.9939 431.998 26.0353L433.23 24.46C431.771 23.3191 430.17 22.3513 428.456 21.5876L427.642 23.4144ZM435.593 29.6307C436.634 30.9622 437.517 32.4235 438.214 33.9864L440.041 33.1722C439.277 31.4586 438.309 29.8572 437.168 28.3986L435.593 29.6307ZM439.699 38.8464C439.844 39.6742 439.941 40.5193 439.986 41.3786L441.983 41.2735C441.934 40.3331 441.828 39.4076 441.669 38.5004L439.699 38.8464ZM439.986 41.3786C440.039 42.3753 440.019 43.3643 439.932 44.3396L441.924 44.5179C442.02 43.4489 442.041 42.3651 441.983 41.2735L439.986 41.3786ZM438.576 50.0889C437.854 51.931 436.873 53.6623 435.663 55.2285L437.246 56.4508C438.571 54.7346 439.647 52.8377 440.438 50.8191L438.576 50.0889ZM431.427 59.345C430.635 59.921 429.796 60.4455 428.914 60.9124L429.85 62.68C430.816 62.1686 431.735 61.5938 432.603 60.9626L431.427 59.345ZM428.914 60.9124L427.303 61.7656L428.238 63.5332L429.85 62.68L428.914 60.9124ZM424.08 63.472L422.468 64.3251L423.404 66.0927L425.015 65.2395L424.08 63.472Z" fill="white" fill-opacity="0.5"/>
<path d="M348.08 188.668C347.776 188.668 347.564 188.612 347.444 188.5C347.324 188.38 347.264 188.24 347.264 188.08C347.264 188.032 347.268 187.976 347.276 187.912C347.284 187.848 347.296 187.78 347.312 187.708C347.352 187.492 347.44 187.324 347.576 187.204C347.72 187.076 347.944 187.012 348.248 187.012C348.552 187.012 348.764 187.072 348.884 187.192C349.004 187.304 349.064 187.44 349.064 187.6C349.064 187.648 349.06 187.704 349.052 187.768C349.044 187.832 349.032 187.9 349.016 187.972C348.976 188.188 348.884 188.36 348.74 188.488C348.604 188.608 348.384 188.668 348.08 188.668ZM347.384 196.144C347 196.144 346.712 196.044 346.52 195.844C346.328 195.644 346.232 195.384 346.232 195.064C346.232 194.96 346.24 194.856 346.256 194.752C346.272 194.648 346.292 194.524 346.316 194.38L347 190.852H344.912L345.08 189.808H348.476L347.468 195.004L347.708 195.1L349.784 193.192L350.516 193.852L349.58 194.788C349.332 195.036 349.108 195.248 348.908 195.424C348.708 195.592 348.524 195.732 348.356 195.844C348.188 195.948 348.024 196.024 347.864 196.072C347.712 196.12 347.552 196.144 347.384 196.144ZM351.219 196L352.251 189.808H353.343L353.175 190.828H353.235C353.379 190.492 353.555 190.216 353.763 190C353.979 189.776 354.255 189.664 354.591 189.664C354.927 189.664 355.175 189.772 355.335 189.988C355.503 190.204 355.571 190.496 355.539 190.864H355.587C355.739 190.504 355.931 190.216 356.163 190C356.403 189.776 356.707 189.664 357.075 189.664C357.427 189.664 357.691 189.764 357.867 189.964C358.051 190.164 358.143 190.456 358.143 190.84C358.143 190.96 358.135 191.108 358.119 191.284C358.103 191.452 358.083 191.608 358.059 191.752L357.351 196H356.259L356.943 191.908C356.959 191.796 356.975 191.676 356.991 191.548C357.007 191.42 357.015 191.316 357.015 191.236C357.015 190.844 356.859 190.648 356.547 190.648C356.275 190.648 356.047 190.796 355.863 191.092C355.775 191.236 355.695 191.396 355.623 191.572C355.551 191.74 355.499 191.916 355.467 192.1L354.819 196H353.727L354.423 191.848C354.439 191.736 354.451 191.632 354.459 191.536C354.475 191.432 354.483 191.336 354.483 191.248C354.483 190.848 354.339 190.648 354.051 190.648C353.779 190.648 353.543 190.796 353.343 191.092C353.239 191.244 353.159 191.404 353.103 191.572C353.047 191.732 353.003 191.888 352.971 192.04L352.311 196H351.219ZM359.903 189.808H361.187L360.947 191.272H360.995C361.115 191.032 361.243 190.816 361.379 190.624C361.515 190.424 361.667 190.252 361.835 190.108C362.003 189.964 362.191 189.856 362.399 189.784C362.615 189.704 362.859 189.664 363.131 189.664C363.771 189.664 364.243 189.872 364.547 190.288C364.859 190.704 365.015 191.296 365.015 192.064C365.015 192.56 364.955 193.052 364.835 193.54C364.723 194.028 364.547 194.464 364.307 194.848C364.067 195.232 363.763 195.544 363.395 195.784C363.035 196.024 362.607 196.144 362.111 196.144C361.639 196.144 361.263 196.036 360.983 195.82C360.703 195.604 360.507 195.292 360.395 194.884H360.335L359.759 198.4H358.475L359.903 189.808ZM361.715 195.1C362.251 195.1 362.663 194.94 362.951 194.62C363.247 194.292 363.439 193.876 363.527 193.372L363.671 192.52C363.687 192.448 363.699 192.368 363.707 192.28C363.715 192.184 363.719 192.092 363.719 192.004C363.719 191.612 363.631 191.3 363.455 191.068C363.279 190.828 362.999 190.708 362.615 190.708C362.135 190.708 361.711 190.924 361.343 191.356C361.207 191.508 361.079 191.696 360.959 191.92C360.839 192.144 360.755 192.4 360.707 192.688L360.503 193.924C360.439 194.284 360.515 194.572 360.731 194.788C360.955 194.996 361.283 195.1 361.715 195.1ZM367.566 196L368.418 190.852H366.822L367.002 189.808H369.882L369.582 191.56H369.654C369.886 191.024 370.182 190.6 370.542 190.288C370.902 189.968 371.382 189.808 371.982 189.808H372.702L372.486 191.092H371.406C371.062 191.092 370.778 191.14 370.554 191.236C370.338 191.324 370.146 191.472 369.978 191.68C369.898 191.776 369.786 191.932 369.642 192.148C369.506 192.364 369.414 192.616 369.366 192.904L368.85 196H367.566ZM375.961 196.144C375.553 196.144 375.193 196.08 374.881 195.952C374.569 195.824 374.305 195.648 374.089 195.424C373.881 195.192 373.721 194.916 373.609 194.596C373.497 194.268 373.441 193.904 373.441 193.504C373.441 192.912 373.525 192.38 373.693 191.908C373.861 191.436 374.093 191.036 374.389 190.708C374.693 190.372 375.049 190.116 375.457 189.94C375.873 189.756 376.321 189.664 376.801 189.664C377.209 189.664 377.569 189.728 377.881 189.856C378.193 189.984 378.453 190.164 378.661 190.396C378.877 190.62 379.041 190.896 379.153 191.224C379.265 191.552 379.321 191.912 379.321 192.304C379.321 192.896 379.237 193.428 379.069 193.9C378.901 194.372 378.665 194.776 378.361 195.112C378.065 195.44 377.709 195.696 377.293 195.88C376.885 196.056 376.441 196.144 375.961 196.144ZM376.045 195.124C376.549 195.124 376.953 194.972 377.257 194.668C377.561 194.356 377.757 193.928 377.845 193.384L377.977 192.592C377.993 192.48 378.005 192.376 378.013 192.28C378.029 192.184 378.037 192.1 378.037 192.028C378.037 191.572 377.917 191.236 377.677 191.02C377.445 190.796 377.125 190.684 376.717 190.684C376.213 190.684 375.809 190.84 375.505 191.152C375.201 191.456 375.005 191.88 374.917 192.424L374.785 193.216C374.769 193.328 374.753 193.432 374.737 193.528C374.729 193.624 374.725 193.708 374.725 193.78C374.725 194.236 374.841 194.576 375.073 194.8C375.313 195.016 375.637 195.124 376.045 195.124ZM383.253 189.808L382.449 195.088L382.605 195.184C383.053 195.088 383.441 194.924 383.769 194.692C384.097 194.46 384.369 194.184 384.585 193.864C384.801 193.544 384.961 193.192 385.065 192.808C385.177 192.424 385.233 192.036 385.233 191.644C385.233 191.084 385.109 190.568 384.861 190.096L386.037 189.7C386.197 189.948 386.317 190.236 386.397 190.564C386.485 190.884 386.529 191.232 386.529 191.608C386.529 192.232 386.417 192.82 386.193 193.372C385.969 193.916 385.665 194.392 385.281 194.8C384.905 195.208 384.469 195.532 383.973 195.772C383.477 196.004 382.957 196.12 382.413 196.12C382.013 196.12 381.717 196.02 381.525 195.82C381.333 195.62 381.237 195.344 381.237 194.992C381.237 194.904 381.241 194.816 381.249 194.728C381.257 194.64 381.269 194.54 381.285 194.428L381.837 190.852H380.625L380.793 189.808H383.253ZM390.52 196.144C389.672 196.144 389.032 195.92 388.6 195.472C388.176 195.024 387.964 194.364 387.964 193.492C387.964 192.924 388.048 192.408 388.216 191.944C388.392 191.472 388.632 191.068 388.936 190.732C389.248 190.396 389.616 190.136 390.04 189.952C390.472 189.76 390.948 189.664 391.468 189.664C391.78 189.664 392.068 189.7 392.332 189.772C392.596 189.844 392.824 189.952 393.016 190.096C393.216 190.232 393.372 190.408 393.484 190.624C393.596 190.832 393.652 191.072 393.652 191.344C393.652 191.576 393.6 191.812 393.496 192.052C393.4 192.292 393.196 192.512 392.884 192.712C392.572 192.912 392.128 193.08 391.552 193.216C390.976 193.352 390.216 193.436 389.272 193.468C389.264 193.524 389.26 193.576 389.26 193.624C389.26 193.664 389.26 193.692 389.26 193.708C389.26 193.9 389.28 194.084 389.32 194.26C389.368 194.428 389.444 194.576 389.548 194.704C389.652 194.832 389.792 194.932 389.968 195.004C390.152 195.076 390.384 195.112 390.664 195.112C390.864 195.112 391.044 195.092 391.204 195.052C391.372 195.004 391.528 194.932 391.672 194.836C391.824 194.74 391.972 194.616 392.116 194.464C392.268 194.304 392.428 194.108 392.596 193.876L393.436 194.416C393.268 194.68 393.088 194.92 392.896 195.136C392.704 195.344 392.488 195.524 392.248 195.676C392.016 195.82 391.756 195.932 391.468 196.012C391.188 196.1 390.872 196.144 390.52 196.144ZM391.348 190.636C390.82 190.636 390.388 190.792 390.052 191.104C389.716 191.416 389.496 191.892 389.392 192.532L389.368 192.664C390.04 192.64 390.572 192.588 390.964 192.508C391.364 192.42 391.668 192.32 391.876 192.208C392.092 192.088 392.228 191.96 392.284 191.824C392.348 191.688 392.38 191.556 392.38 191.428C392.38 191.196 392.3 191.008 392.14 190.864C391.988 190.712 391.724 190.636 391.348 190.636ZM397.535 196.144C396.927 196.144 396.399 196.052 395.951 195.868C395.503 195.676 395.155 195.4 394.907 195.04L395.723 194.32C396.163 194.88 396.799 195.16 397.631 195.16C398.103 195.16 398.471 195.076 398.735 194.908C399.007 194.74 399.143 194.5 399.143 194.188C399.143 193.948 399.067 193.784 398.915 193.696C398.771 193.6 398.587 193.532 398.363 193.492L397.463 193.336C397.231 193.296 397.007 193.24 396.791 193.168C396.583 193.096 396.399 193 396.239 192.88C396.079 192.752 395.947 192.592 395.843 192.4C395.747 192.208 395.699 191.972 395.699 191.692C395.699 191.356 395.767 191.064 395.903 190.816C396.047 190.56 396.239 190.348 396.479 190.18C396.727 190.004 397.015 189.876 397.343 189.796C397.671 189.708 398.027 189.664 398.411 189.664C398.963 189.664 399.439 189.748 399.839 189.916C400.247 190.076 400.567 190.296 400.799 190.576L400.007 191.332C399.887 191.164 399.691 191.008 399.419 190.864C399.147 190.72 398.787 190.648 398.339 190.648C397.891 190.648 397.547 190.728 397.307 190.888C397.075 191.048 396.959 191.272 396.959 191.56C396.959 191.808 397.035 191.976 397.187 192.064C397.347 192.152 397.539 192.216 397.763 192.256L398.663 192.424C398.887 192.464 399.103 192.52 399.311 192.592C399.519 192.656 399.703 192.748 399.863 192.868C400.031 192.98 400.163 193.132 400.259 193.324C400.363 193.508 400.415 193.74 400.415 194.02C400.415 194.348 400.347 194.644 400.211 194.908C400.075 195.172 399.879 195.396 399.623 195.58C399.375 195.764 399.071 195.904 398.711 196C398.359 196.096 397.967 196.144 397.535 196.144ZM408.938 197.656L414.734 186.88H415.91L410.114 197.656H408.938ZM424.624 196.132C424.24 196.132 423.956 196.02 423.772 195.796C423.596 195.564 423.508 195.256 423.508 194.872C423.508 194.752 423.516 194.608 423.532 194.44C423.548 194.272 423.572 194.1 423.604 193.924L424.288 189.808H425.368L424.672 193.852C424.656 193.964 424.64 194.08 424.624 194.2C424.608 194.312 424.6 194.416 424.6 194.512C424.6 194.896 424.76 195.088 425.08 195.088C425.224 195.088 425.352 195.044 425.464 194.956C425.576 194.868 425.68 194.752 425.776 194.608C425.864 194.48 425.936 194.324 425.992 194.14C426.048 193.956 426.088 193.792 426.112 193.648L426.748 189.808H427.792L427.132 193.876C427.116 193.996 427.1 194.112 427.084 194.224C427.076 194.336 427.072 194.436 427.072 194.524C427.072 194.908 427.224 195.1 427.528 195.1C427.72 195.1 427.9 195 428.068 194.8C428.244 194.592 428.392 194.324 428.512 193.996C428.64 193.66 428.74 193.284 428.812 192.868C428.892 192.452 428.932 192.028 428.932 191.596C428.932 191.308 428.912 191.024 428.872 190.744C428.832 190.456 428.768 190.216 428.68 190.024L429.652 189.736C429.764 189.952 429.852 190.22 429.916 190.54C429.98 190.852 430.012 191.2 430.012 191.584C430.012 192.304 429.924 192.98 429.748 193.612C429.58 194.236 429.34 194.756 429.028 195.172C428.548 195.812 427.968 196.132 427.288 196.132C426.912 196.132 426.632 196.024 426.448 195.808C426.264 195.592 426.184 195.272 426.208 194.848H426.148C425.988 195.256 425.784 195.572 425.536 195.796C425.296 196.02 424.992 196.132 424.624 196.132ZM433.524 196.144C433.116 196.144 432.756 196.08 432.444 195.952C432.132 195.824 431.868 195.648 431.652 195.424C431.444 195.192 431.284 194.916 431.172 194.596C431.06 194.268 431.004 193.904 431.004 193.504C431.004 192.912 431.088 192.38 431.256 191.908C431.424 191.436 431.656 191.036 431.952 190.708C432.256 190.372 432.612 190.116 433.02 189.94C433.436 189.756 433.884 189.664 434.364 189.664C434.772 189.664 435.132 189.728 435.444 189.856C435.756 189.984 436.016 190.164 436.224 190.396C436.44 190.62 436.604 190.896 436.716 191.224C436.828 191.552 436.884 191.912 436.884 192.304C436.884 192.896 436.8 193.428 436.632 193.9C436.464 194.372 436.228 194.776 435.924 195.112C435.628 195.44 435.272 195.696 434.856 195.88C434.448 196.056 434.004 196.144 433.524 196.144ZM433.608 195.124C434.112 195.124 434.516 194.972 434.82 194.668C435.124 194.356 435.32 193.928 435.408 193.384L435.54 192.592C435.556 192.48 435.568 192.376 435.576 192.28C435.592 192.184 435.6 192.1 435.6 192.028C435.6 191.572 435.48 191.236 435.24 191.02C435.008 190.796 434.688 190.684 434.28 190.684C433.776 190.684 433.372 190.84 433.068 191.152C432.764 191.456 432.568 191.88 432.48 192.424L432.348 193.216C432.332 193.328 432.316 193.432 432.3 193.528C432.292 193.624 432.288 193.708 432.288 193.78C432.288 194.236 432.404 194.576 432.636 194.8C432.876 195.016 433.2 195.124 433.608 195.124ZM439.519 196L440.371 190.852H438.775L438.955 189.808H441.835L441.535 191.56H441.607C441.839 191.024 442.135 190.6 442.495 190.288C442.855 189.968 443.335 189.808 443.935 189.808H444.655L444.439 191.092H443.359C443.015 191.092 442.731 191.14 442.507 191.236C442.291 191.324 442.099 191.472 441.931 191.68C441.851 191.776 441.739 191.932 441.595 192.148C441.459 192.364 441.367 192.616 441.319 192.904L440.803 196H439.519ZM447.902 196.144C447.294 196.144 446.766 196.052 446.318 195.868C445.87 195.676 445.522 195.4 445.274 195.04L446.09 194.32C446.53 194.88 447.166 195.16 447.998 195.16C448.47 195.16 448.838 195.076 449.102 194.908C449.374 194.74 449.51 194.5 449.51 194.188C449.51 193.948 449.434 193.784 449.282 193.696C449.138 193.6 448.954 193.532 448.73 193.492L447.83 193.336C447.598 193.296 447.374 193.24 447.158 193.168C446.95 193.096 446.766 193 446.606 192.88C446.446 192.752 446.314 192.592 446.21 192.4C446.114 192.208 446.066 191.972 446.066 191.692C446.066 191.356 446.134 191.064 446.27 190.816C446.414 190.56 446.606 190.348 446.846 190.18C447.094 190.004 447.382 189.876 447.71 189.796C448.038 189.708 448.394 189.664 448.778 189.664C449.33 189.664 449.806 189.748 450.206 189.916C450.614 190.076 450.934 190.296 451.166 190.576L450.374 191.332C450.254 191.164 450.058 191.008 449.786 190.864C449.514 190.72 449.154 190.648 448.706 190.648C448.258 190.648 447.914 190.728 447.674 190.888C447.442 191.048 447.326 191.272 447.326 191.56C447.326 191.808 447.402 191.976 447.554 192.064C447.714 192.152 447.906 192.216 448.13 192.256L449.03 192.424C449.254 192.464 449.47 192.52 449.678 192.592C449.886 192.656 450.07 192.748 450.23 192.868C450.398 192.98 450.53 193.132 450.626 193.324C450.73 193.508 450.782 193.74 450.782 194.02C450.782 194.348 450.714 194.644 450.578 194.908C450.442 195.172 450.246 195.396 449.99 195.58C449.742 195.764 449.438 195.904 449.078 196C448.726 196.096 448.334 196.144 447.902 196.144ZM455.278 196.144C454.43 196.144 453.79 195.92 453.358 195.472C452.934 195.024 452.722 194.364 452.722 193.492C452.722 192.924 452.806 192.408 452.974 191.944C453.15 191.472 453.39 191.068 453.694 190.732C454.006 190.396 454.374 190.136 454.798 189.952C455.23 189.76 455.706 189.664 456.226 189.664C456.538 189.664 456.826 189.7 457.09 189.772C457.354 189.844 457.582 189.952 457.774 190.096C457.974 190.232 458.13 190.408 458.242 190.624C458.354 190.832 458.41 191.072 458.41 191.344C458.41 191.576 458.358 191.812 458.254 192.052C458.158 192.292 457.954 192.512 457.642 192.712C457.33 192.912 456.886 193.08 456.31 193.216C455.734 193.352 454.974 193.436 454.03 193.468C454.022 193.524 454.018 193.576 454.018 193.624C454.018 193.664 454.018 193.692 454.018 193.708C454.018 193.9 454.038 194.084 454.078 194.26C454.126 194.428 454.202 194.576 454.306 194.704C454.41 194.832 454.55 194.932 454.726 195.004C454.91 195.076 455.142 195.112 455.422 195.112C455.622 195.112 455.802 195.092 455.962 195.052C456.13 195.004 456.286 194.932 456.43 194.836C456.582 194.74 456.73 194.616 456.874 194.464C457.026 194.304 457.186 194.108 457.354 193.876L458.194 194.416C458.026 194.68 457.846 194.92 457.654 195.136C457.462 195.344 457.246 195.524 457.006 195.676C456.774 195.82 456.514 195.932 456.226 196.012C455.946 196.1 455.63 196.144 455.278 196.144ZM456.106 190.636C455.578 190.636 455.146 190.792 454.81 191.104C454.474 191.416 454.254 191.892 454.15 192.532L454.126 192.664C454.798 192.64 455.33 192.588 455.722 192.508C456.122 192.42 456.426 192.32 456.634 192.208C456.85 192.088 456.986 191.96 457.042 191.824C457.106 191.688 457.138 191.556 457.138 191.428C457.138 191.196 457.058 191.008 456.898 190.864C456.746 190.712 456.482 190.636 456.106 190.636ZM459.665 196L460.697 189.808H461.981L461.729 191.272H461.789C462.021 190.776 462.293 190.384 462.605 190.096C462.917 189.808 463.325 189.664 463.829 189.664C464.381 189.664 464.797 189.832 465.077 190.168C465.365 190.496 465.509 190.924 465.509 191.452C465.509 191.596 465.501 191.748 465.485 191.908C465.477 192.06 465.453 192.24 465.413 192.448L464.825 196H463.541L464.141 192.4C464.157 192.288 464.173 192.172 464.189 192.052C464.205 191.924 464.213 191.808 464.213 191.704C464.213 191.424 464.141 191.188 463.997 190.996C463.861 190.804 463.633 190.708 463.313 190.708C463.073 190.708 462.857 190.764 462.665 190.876C462.481 190.988 462.309 191.14 462.149 191.332C462.069 191.428 461.953 191.596 461.801 191.836C461.657 192.076 461.557 192.36 461.501 192.688L460.949 196H459.665ZM469.488 196.144C468.88 196.144 468.352 196.052 467.904 195.868C467.456 195.676 467.108 195.4 466.86 195.04L467.676 194.32C468.116 194.88 468.752 195.16 469.584 195.16C470.056 195.16 470.424 195.076 470.688 194.908C470.96 194.74 471.096 194.5 471.096 194.188C471.096 193.948 471.02 193.784 470.868 193.696C470.724 193.6 470.54 193.532 470.316 193.492L469.416 193.336C469.184 193.296 468.96 193.24 468.744 193.168C468.536 193.096 468.352 193 468.192 192.88C468.032 192.752 467.9 192.592 467.796 192.4C467.7 192.208 467.652 191.972 467.652 191.692C467.652 191.356 467.72 191.064 467.856 190.816C468 190.56 468.192 190.348 468.432 190.18C468.68 190.004 468.968 189.876 469.296 189.796C469.624 189.708 469.98 189.664 470.364 189.664C470.916 189.664 471.392 189.748 471.792 189.916C472.2 190.076 472.52 190.296 472.752 190.576L471.96 191.332C471.84 191.164 471.644 191.008 471.372 190.864C471.1 190.72 470.74 190.648 470.292 190.648C469.844 190.648 469.5 190.728 469.26 190.888C469.028 191.048 468.912 191.272 468.912 191.56C468.912 191.808 468.988 191.976 469.14 192.064C469.3 192.152 469.492 192.216 469.716 192.256L470.616 192.424C470.84 192.464 471.056 192.52 471.264 192.592C471.472 192.656 471.656 192.748 471.816 192.868C471.984 192.98 472.116 193.132 472.212 193.324C472.316 193.508 472.368 193.74 472.368 194.02C472.368 194.348 472.3 194.644 472.164 194.908C472.028 195.172 471.832 195.396 471.576 195.58C471.328 195.764 471.024 195.904 470.664 196C470.312 196.096 469.92 196.144 469.488 196.144Z" fill="white"/>
</svg>
