<svg width="900" height="900" viewBox="0 0 900 900" fill="none" xmlns="http://www.w3.org/2000/svg">
<rect width="900" height="900" fill="black"/>
<path d="M275.5 233.781C254.387 210.64 255 211.499 240 184C230.757 167.054 240 230.5 240 230.5C240 230.5 230.5 291.5 240 277C249.5 262.5 263.121 245.917 275.5 233.781ZM275.5 233.781C335.64 233.781 429.5 233.781 429.5 233.781C429.5 193.368 410.5 171.5 366.5 173.5C324.988 175.386 296.719 220.142 275.5 233.781ZM395.5 203.5H396.5" stroke="white" stroke-width="12" stroke-linecap="round"/>
<path d="M410.782 527C409.029 532.26 407.48 547.38 398.757 557.999C392.407 565.729 382.5 570 378 570C373.446 570 368.5 569 364.479 564.971C359.417 559.897 355.379 549.5 355.379 549.5C355.379 549.5 350.553 525.5 327.879 515C304.598 504.218 285.177 506.306 269.879 501C276.744 490.092 282.821 449.669 286.843 437.425C291.302 423.853 295.026 401.771 295.026 401.771C295.026 401.771 300.421 379.56 312.561 369.039C330.095 353.843 350.553 341.568 350.553 341.568" stroke="white" stroke-width="16" stroke-linecap="round"/>
<path d="M489.879 527C491.633 532.26 493.182 547.38 501.904 557.999C508.255 565.729 518.162 570 522.662 570C527.216 570 532.162 569 536.182 564.971C541.245 559.897 545.282 549.5 545.282 549.5C545.282 549.5 550.109 525.5 572.782 515C596.063 504.218 615.484 506.306 630.782 501C623.918 490.092 617.841 449.669 613.818 437.425C609.36 423.853 605.636 401.771 605.636 401.771C605.636 401.771 600.24 379.56 588.101 369.039C570.566 353.843 550.109 341.568 550.109 341.568" stroke="white" stroke-width="16" stroke-linecap="round"/>
<path d="M358.597 817.5C358.597 817.5 358.597 790.625 358.597 785.949C358.597 781.273 345.739 776.013 333.464 764.323C321.19 752.633 307.747 664.375 300.733 649.763C293.719 635.151 275.12 632.179 253.389 614.694C230.992 596.673 216.566 573.779 214.228 564.428C211.89 555.076 211.597 539.929 206.337 533.499C201.076 527.07 176.821 511.824 179.158 471.494C181.495 431.164 241.7 381.482 258.065 365.701C274.43 349.92 287.29 336.477 287.29 325.956C287.29 315.435 262.74 278.028 263.91 273.936C265.08 269.845 278 263.5 278 263.5" stroke="white" stroke-width="16" stroke-linecap="round"/>
<path d="M542 817.5C542 817.5 542 790.625 542 785.95C542 781.274 554.859 776.013 567.133 764.323C579.407 752.634 592.851 664.376 599.865 649.764C606.878 635.151 625.477 632.179 647.208 614.694C669.605 596.673 684.031 573.78 686.369 564.428C688.707 555.076 689 539.929 694.261 533.5C699.521 527.07 723.776 511.824 721.439 471.494C719.102 431.165 658.897 381.483 642.532 365.702C626.167 349.921 613.308 336.477 613.308 325.956C613.308 315.436 637.857 278.028 636.687 273.937C635.518 269.846 622.597 263.5 622.597 263.5" stroke="white" stroke-width="16" stroke-linecap="round"/>
<path d="M655.5 529.5C650.824 538.267 649.84 554.609 630 568C618.019 576.086 586.454 580.112 582.5 594C571.998 630.887 561.804 632.107 557.129 645.551C552.453 658.994 560.85 691.317 503.57 691.317C446.29 691.317 450.751 632.107 450.751 632.107" stroke="white" stroke-width="16" stroke-linecap="round"/>
<path d="M245.67 529.5C250.346 538.267 251.33 554.609 271.17 568C283.152 576.086 314.716 580.112 318.67 594C329.173 630.887 339.366 632.107 344.042 645.551C348.718 658.994 340.32 691.317 397.6 691.317C454.88 691.317 450.419 632.107 450.419 632.107" stroke="white" stroke-width="16" stroke-linecap="round"/>
<path d="M450.947 535.204C431.073 535.203 413.538 522.929 407.694 511.239C401.849 499.55 397.529 469.156 396.588 462.727C395.647 456.297 388.602 450.469 386.652 442.854C382.376 426.158 389.574 407.785 393.667 399.018C397.76 390.25 405.94 382.067 422.306 375.053C438.671 368.04 435.749 370.377 450.947 369.208" stroke="white" stroke-width="16"/>
<path d="M450.361 535.204C470.235 535.203 487.77 522.929 493.615 511.239C499.46 499.55 503.779 469.156 504.72 462.727C505.661 456.297 512.706 450.469 514.656 442.854C518.932 426.158 511.734 407.785 507.641 399.018C503.549 390.25 495.368 382.067 479.003 375.053C462.637 368.04 465.559 370.377 450.361 369.208" stroke="white" stroke-width="16"/>
<path d="M410.5 439.5C410.5 439.5 417.932 446.655 427.447 446.655C436.962 446.654 440.628 439.534 441.381 442.17C442.134 444.805 431.737 474.181 438.368 474.181H450.5H462.132C468.763 474.181 458.366 444.805 459.119 442.17C459.872 439.534 463.538 446.654 473.053 446.655C482.568 446.655 490 439.5 490 439.5" stroke="white" stroke-width="12" stroke-linecap="round"/>
<path d="M616.721 244.5C614.351 278.132 597.014 305.999 569.125 326.089C538.888 347.87 496.156 360.5 447.092 360.5C398.028 360.5 355.247 347.87 324.962 326.086C297.029 305.993 279.655 278.126 277.28 244.5H277.291H277.456H277.622H277.789H277.958H278.128H278.3H278.474H278.649H278.825H279.003H279.183H279.364H279.546H279.73H279.916H280.103H280.291H280.481H280.673H280.866H281.06H281.256H281.453H281.652H281.853H282.054H282.258H282.462H282.669H282.876H283.086H283.296H283.508H283.722H283.937H284.153H284.371H284.59H284.811H285.033H285.257H285.482H285.708H285.936H286.166H286.396H286.629H286.862H287.097H287.334H287.571H287.811H288.051H288.293H288.537H288.782H289.028H289.276H289.525H289.775H290.027H290.28H290.535H290.791H291.048H291.307H291.567H291.828H292.091H292.355H292.621H292.888H293.156H293.426H293.697H293.969H294.243H294.518H294.794H295.072H295.351H295.631H295.913H296.196H296.48H296.766H297.053H297.341H297.631H297.922H298.214H298.508H298.803H299.099H299.397H299.695H299.996H300.297H300.6H300.904H301.209H301.516H301.824H302.133H302.443H302.755H303.068H303.382H303.698H304.015H304.333H304.652H304.973H305.294H305.618H305.942H306.268H306.594H306.923H307.252H307.583H307.914H308.247H308.582H308.917H309.254H309.592H309.931H310.272H310.613H310.956H311.3H311.646H311.992H312.34H312.689H313.039H313.39H313.743H314.097H314.452H314.808H315.165H315.524H315.883H316.244H316.606H316.969H317.334H317.699H318.066H318.434H318.803H319.173H319.545H319.917H320.291H320.666H321.042H321.419H321.797H322.177H322.557H322.939H323.322H323.706H324.091H324.477H324.864H325.253H325.643H326.033H326.425H326.818H327.212H327.607H328.004H328.401H328.799H329.199H329.6H330.002H330.404H330.808H331.213H331.62H332.027H332.435H332.844H333.255H333.666H334.079H334.493H334.907H335.323H335.74H336.158H336.577H336.997H337.418H337.84H338.263H338.687H339.112H339.539H339.966H340.394H340.824H341.254H341.686H342.118H342.552H342.986H343.422H343.858H344.296H344.734H345.174H345.614H346.056H346.498H346.942H347.386H347.832H348.279H348.726H349.175H349.624H350.075H350.526H350.978H351.432H351.886H352.341H352.798H353.255H353.713H354.172H354.633H355.094H355.556H356.019H356.483H356.948H357.413H357.88H358.348H358.816H359.286H359.757H360.228H360.7H361.174H361.648H362.123H362.599H363.076H363.554H364.032H364.512H364.993H365.474H365.956H366.44H366.924H367.409H367.895H368.382H368.869H369.358H369.847H370.338H370.829H371.321H371.814H372.308H372.802H373.298H373.794H374.292H374.79H375.289H375.789H376.289H376.791H377.293H377.796H378.3H378.805H379.311H379.817H380.325H380.833H381.342H381.852H382.362H382.874H383.386H383.899H384.413H384.928H385.443H385.959H386.477H386.994H387.513H388.033H388.553H389.074H389.596H390.118H390.642H391.166H391.691H392.217H392.743H393.27H393.798H394.327H394.857H395.387H395.918H396.45H396.982H397.516H398.05H398.585H399.12H399.656H400.193H400.731H401.27H401.809H402.349H402.89H403.431H403.973H404.516H405.059H405.604H406.149H406.694H407.241H407.788H408.335H408.884H409.433H409.983H410.533H411.085H411.637H412.189H412.742H413.296H413.851H414.406H414.962H415.519H416.076H416.634H417.193H417.752H418.312H418.873H419.434H419.996H420.558H421.121H421.685H422.25H422.815H423.381H423.947H424.514H425.082H425.65H426.219H426.788H427.358H427.929H428.5H429.072H429.645H430.218H430.792H431.366H431.941H432.517H433.093H433.67H434.247H434.825H435.403H435.982H436.562H437.142H437.723H438.304H438.886H439.469H440.052H440.636H441.22H441.805H442.39H442.976H443.562H444.149H444.737H445.325H445.913H446.502H447.092H447.682H448.271H448.859H449.447H450.035H450.622H451.208H451.794H452.379H452.964H453.548H454.132H454.715H455.297H455.879H456.46H457.041H457.621H458.201H458.78H459.358H459.936H460.513H461.09H461.666H462.242H462.816H463.391H463.964H464.537H465.11H465.682H466.253H466.823H467.393H467.963H468.531H469.1H469.667H470.234H470.8H471.366H471.931H472.495H473.059H473.622H474.184H474.746H475.307H475.867H476.427H476.986H477.544H478.102H478.659H479.216H479.771H480.327H480.881H481.435H481.988H482.54H483.092H483.643H484.193H484.743H485.292H485.84H486.387H486.934H487.48H488.026H488.57H489.114H489.658H490.2H490.742H491.283H491.823H492.363H492.902H493.44H493.978H494.514H495.05H495.586H496.12H496.654H497.187H497.719H498.251H498.781H499.311H499.841H500.369H500.897H501.424H501.95H502.475H503H503.524H504.047H504.569H505.09H505.611H506.131H506.65H507.168H507.686H508.203H508.719H509.234H509.748H510.262H510.774H511.286H511.797H512.308H512.817H513.326H513.833H514.34H514.846H515.352H515.856H516.36H516.863H517.365H517.866H518.366H518.865H519.364H519.862H520.358H520.854H521.35H521.844H522.337H522.83H523.321H523.812H524.302H524.791H525.279H525.766H526.253H526.738H527.223H527.707H528.189H528.671H529.152H529.633H530.112H530.59H531.067H531.544H532.019H532.494H532.968H533.441H533.913H534.383H534.853H535.323H535.791H536.258H536.724H537.19H537.654H538.117H538.58H539.042H539.502H539.962H540.421H540.878H541.335H541.791H542.246H542.7H543.152H543.604H544.055H544.505H544.954H545.402H545.849H546.295H546.74H547.184H547.627H548.07H548.511H548.951H549.39H549.828H550.265H550.701H551.136H551.57H552.003H552.435H552.866H553.295H553.724H554.152H554.579H555.005H555.429H555.853H556.276H556.697H557.118H557.537H557.956H558.373H558.789H559.205H559.619H560.032H560.444H560.855H561.265H561.674H562.081H562.488H562.894H563.298H563.702H564.104H564.505H564.905H565.304H565.702H566.099H566.495H566.89H567.283H567.676H568.067H568.457H568.846H569.234H569.621H570.007H570.391H570.775H571.157H571.538H571.918H572.297H572.675H573.051H573.427H573.801H574.174H574.546H574.917H575.287H575.655H576.023H576.389H576.754H577.118H577.48H577.842H578.202H578.561H578.919H579.276H579.632H579.986H580.339H580.691H581.042H581.392H581.74H582.087H582.433H582.778H583.122H583.464H583.805H584.145H584.484H584.821H585.158H585.493H585.826H586.159H586.49H586.82H587.149H587.477H587.803H588.128H588.452H588.775H589.096H589.416H589.735H590.052H590.369H590.684H590.997H591.31H591.621H591.931H592.24H592.547H592.853H593.158H593.462H593.764H594.065H594.364H594.663H594.96H595.255H595.55H595.843H596.135H596.425H596.714H597.002H597.289H597.574H597.858H598.14H598.422H598.701H598.98H599.257H599.533H599.808H600.081H600.353H600.623H600.892H601.16H601.427H601.692H601.955H602.218H602.479H602.738H602.997H603.253H603.509H603.763H604.016H604.267H604.517H604.766H605.013H605.259H605.503H605.746H605.988H606.228H606.467H606.704H606.94H607.175H607.408H607.64H607.87H608.099H608.326H608.552H608.777H609H609.222H609.442H609.661H609.878H610.094H610.309H610.522H610.734H610.944H611.153H611.36H611.566H611.77H611.973H612.175H612.375H612.573H612.77H612.966H613.16H613.352H613.543H613.733H613.921H614.108H614.293H614.477H614.659H614.839H615.018H615.196H615.372H615.547H615.72H615.891H616.062H616.23H616.397H616.563H616.721Z" stroke="white" stroke-width="16"/>
<path d="M556.036 85.4396C558.488 83.2106 558.669 79.4159 556.44 76.964C554.211 74.512 550.416 74.3313 547.964 76.5604L556.036 85.4396ZM526.119 163.5C532.096 162.983 532.096 162.984 532.097 162.985C532.097 162.986 532.097 162.987 532.097 162.987C532.097 162.988 532.097 162.988 532.097 162.989C532.097 162.989 532.097 162.988 532.097 162.985C532.096 162.98 532.095 162.969 532.094 162.953C532.091 162.919 532.087 162.863 532.081 162.785C532.07 162.628 532.053 162.383 532.034 162.055C531.996 161.399 531.95 160.414 531.919 159.149C531.856 156.616 531.856 152.972 532.112 148.6C532.625 139.816 534.157 128.294 538.156 117.003L526.844 112.997C522.343 125.706 520.685 138.434 520.132 147.9C519.854 152.653 519.853 156.634 519.922 159.445C519.957 160.851 520.009 161.968 520.054 162.746C520.077 163.135 520.097 163.439 520.113 163.653C520.12 163.76 520.127 163.844 520.132 163.905C520.134 163.936 520.136 163.96 520.138 163.979C520.139 163.988 520.139 163.996 520.14 164.002C520.14 164.006 520.14 164.008 520.14 164.011C520.141 164.012 520.141 164.014 520.141 164.014C520.141 164.016 520.141 164.017 526.119 163.5ZM538.156 117.003C542.219 105.53 546.844 97.5032 550.369 92.4182C552.132 89.8737 553.624 88.0611 554.637 86.9187C555.144 86.3474 555.531 85.9437 555.773 85.6997C555.894 85.5777 555.978 85.4957 556.023 85.4526C556.046 85.4311 556.058 85.4194 556.061 85.4172C556.062 85.4162 556.06 85.4175 556.056 85.4213C556.054 85.4231 556.051 85.4256 556.048 85.4287C556.046 85.4302 556.045 85.4319 556.043 85.4337C556.042 85.4346 556.04 85.4361 556.039 85.4366C556.038 85.4381 556.036 85.4396 552 81C547.964 76.5604 547.962 76.562 547.96 76.5637C547.96 76.5643 547.958 76.566 547.956 76.5672C547.954 76.5696 547.951 76.5722 547.948 76.575C547.942 76.5805 547.935 76.5867 547.928 76.5934C547.913 76.607 547.896 76.623 547.876 76.6416C547.836 76.6788 547.786 76.7261 547.726 76.7837C547.605 76.8989 547.445 77.0551 547.249 77.2535C546.856 77.6501 546.317 78.2151 545.66 78.9563C544.345 80.4389 542.555 82.6263 540.506 85.5818C536.406 91.4968 531.281 100.47 526.844 112.997L538.156 117.003Z" fill="white"/>
<circle cx="580.5" cy="212" r="21.5" stroke="white" stroke-width="12"/>
<circle cx="527.5" cy="212" r="21.5" stroke="white" stroke-width="12"/>
<circle cx="474.5" cy="212" r="21.5" stroke="white" stroke-width="12"/>
<circle cx="499.5" cy="165" r="21.5" stroke="white" stroke-width="12"/>
<circle cx="554.5" cy="165" r="21.5" stroke="white" stroke-width="12"/>
<path d="M452.5 716.5V819" stroke="white" stroke-width="12" stroke-linecap="round"/>
<path d="M415 748H486.5" stroke="white" stroke-width="12" stroke-linecap="round"/>
<path d="M416.5 787H488" stroke="white" stroke-width="12" stroke-linecap="round"/>
</svg>
